<svg width="44" height="44" viewBox="0 0 44 44" fill="none" xmlns="http://www.w3.org/2000/svg">
<g id="teenyicons:tick-circle-outline" clip-path="url(#clip0_0_334)">
<path id="Vector" d="M11.7333 22L20.5333 29.3333L32.2667 14.6667M22 42.5333C19.3035 42.5333 16.6335 42.0022 14.1422 40.9703C11.651 39.9384 9.38744 38.426 7.48075 36.5193C5.57405 34.6126 4.06158 32.349 3.02968 29.8578C1.99779 27.3666 1.46667 24.6965 1.46667 22C1.46667 19.3035 1.99779 16.6335 3.02968 14.1422C4.06158 11.651 5.57405 9.38744 7.48075 7.48075C9.38744 5.57405 11.651 4.06158 14.1422 3.02968C16.6335 1.99779 19.3035 1.46667 22 1.46667C27.4458 1.46667 32.6685 3.63 36.5193 7.48075C40.37 11.3315 42.5333 16.5542 42.5333 22C42.5333 27.4458 40.37 32.6685 36.5193 36.5193C32.6685 40.37 27.4458 42.5333 22 42.5333Z" stroke="#1F2B6C"/>
</g>
<defs>
<clipPath id="clip0_0_334">
<rect width="44" height="44" fill="white"/>
</clipPath>
</defs>
</svg>
